<?xml version="1.0" encoding="UTF-8" standalone="no"?>
<svg
   xmlns:dc="http://purl.org/dc/elements/1.1/"
   xmlns:cc="http://creativecommons.org/ns#"
   xmlns:rdf="http://www.w3.org/1999/02/22-rdf-syntax-ns#"
   xmlns:svg="http://www.w3.org/2000/svg"
   xmlns="http://www.w3.org/2000/svg"
   xmlns:sodipodi="http://sodipodi.sourceforge.net/DTD/sodipodi-0.dtd"
   xmlns:inkscape="http://www.inkscape.org/namespaces/inkscape"
   inkscape:version="1.0 (6e3e5246a0, 2020-05-07)"
   sodipodi:docname="djk-circ-b.svg"
   id="svg834"
   viewBox="0 0 86.296569 86.298071"
   version="1.1"
   height="326.16022"
   width="326.15994">
  <defs
     id="defs838" />
  <sodipodi:namedview
     inkscape:current-layer="svg834"
     inkscape:window-maximized="1"
     inkscape:window-y="0"
     inkscape:window-x="0"
     inkscape:cy="455.76172"
     inkscape:cx="28.504697"
     inkscape:zoom="0.57995546"
     showgrid="false"
     id="namedview836"
     inkscape:window-height="1043"
     inkscape:window-width="1920"
     inkscape:pageshadow="2"
     inkscape:pageopacity="0"
     guidetolerance="10"
     gridtolerance="10"
     objecttolerance="10"
     borderopacity="1"
     bordercolor="#666666"
     pagecolor="#ffffff" />
  <metadata
     id="metadata830">
    <rdf:RDF>
      <cc:Work
         rdf:about="">
        <dc:format>image/svg+xml</dc:format>
        <dc:type
           rdf:resource="http://purl.org/dc/dcmitype/StillImage" />
        <dc:title></dc:title>
      </cc:Work>
    </rdf:RDF>
  </metadata>
  <path
     id="path832"
     style="white-space:pre;shape-inside:url(#rect841)"
     d="M 42.990261,7.1025159e-5 A 43.149,43.149 0 0 0 -0.00173881,43.149071 a 43.149,43.149 0 0 0 43.14899981,43.149 43.149,43.149 0 0 0 43.149,-43.149 43.149,43.149 0 0 0 -43.149,-43.148999974841 43.149,43.149 0 0 0 -0.15658,0 z M 39.311961,7.653371 c 0.54792,-0.12619 3.4766,3.7379 3.9941,3.9579 0.51745,0.21997 5.3315,-0.35241 5.6208,0.12971 0.28933,0.48211 -2.4802,4.4613 -2.5296,5.0214 -0.0493,0.56011 1.9824,4.9621 1.6133,5.3862 -0.3691,0.4241 -5.0094,-0.9804 -5.5573,-0.85421 -0.54793,0.12618 -4.1066,3.4187 -4.624,3.1988 -0.51745,-0.21998 -0.61552,-5.0674 -0.90485,-5.5495 -0.28933,-0.48212 -4.5204,-2.8485 -4.471,-3.4086 0.0493,-0.5601 4.629,-2.1514 4.9982,-2.5756 0.36911,-0.42415 1.3124,-5.18 1.8604,-5.3061 z m -26.171,21.276 11.048,0.0367 c 8.4042,0.028 13.426,5.2432 13.404,13.81 -0.0217,8.6084 -5.2521,14.33 -13.077,14.304 l -11.447,-0.0382 0.003,-1.0402 c 2.0286,0.007 3.0082,-0.90435 3.0132,-2.7342 l 0.0517,-20.502 c -0.0311,-1.9557 -0.71765,-2.5817 -2.9993,-2.7972 z m 22.416,0.0744 11.493,0.0388 1.2583,0.004 10.986,0.0362 -0.002,1.0392 c -2.6086,0.1577 -3.1533,0.78071 -3.2334,3.8163 l -0.0227,8.8992 7.8832,-9.0398 c 1.1261,-1.2855 1.3085,-1.6182 1.3105,-2.2836 0.002,-0.99803 -0.21518,-1.1238 -3.0763,-1.3829 l 0.002,-1.0387 10.469,0.0346 -0.003,1.0387 c -3.5147,0.32103 -4.8208,1.3563 -11.651,9.4015 l 11.009,15.757 c 0.46947,0.62481 0.86748,0.83513 1.773,0.87953 l -0.003,1.0397 -12.172,-0.0408 0.002,-1.0397 c 0.50728,-0.0384 0.97792,-0.0377 1.1591,-0.0372 1.1956,-0.0792 1.7038,-0.28619 1.7048,-0.82682 0.001,-0.4575 -0.17825,-0.8321 -0.86403,-1.8324 l -6.5696,-9.462 -0.9803,1.0366 -0.0207,8.1509 c 0.0311,2.079 0.64532,2.622 3.1796,2.9631 l -0.002,1.0397 -12.209,-0.0403 0.003,-1.0402 c 2.5364,-0.24107 3.1173,-0.77956 3.159,-2.9419 l 0.0506,-20.128 c -0.0279,-2.0019 -0.6115,-2.6972 -2.5337,-2.9084 -2.0661,0.20335 -2.5125,0.96664 -2.5854,3.7652 l -0.0822,32.613 c -0.015,5.947 -2.7042,9.098 -7.8119,9.0811 -1.4489,-0.005 -2.8604,-0.38356 -3.8008,-0.96893 -1.4104,-0.96117 -2.4194,-2.8362 -2.4154,-4.5413 0.004,-1.5802 1.2027,-2.9904 2.543,-2.9864 1.4128,0.005 2.641,1.464 2.637,3.1275 -0.002,0.6654 -0.11203,0.99823 -0.54829,1.6206 -0.32728,0.45636 -0.43618,0.66391 -0.43718,1.0382 -0.002,0.83175 0.613,1.3318 1.6273,1.3358 1.6663,0.006 2.321,-1.0317 2.327,-3.6101 l 0.0946,-37.603 c -0.0667,-2.2875 -0.78927,-2.9145 -3.6509,-2.9657 z m -11.407,1.3751 c -1.4128,-0.005 -2.139,0.49304 -2.141,1.4495 l -0.0543,21.374 c -0.005,1.8714 0.46589,2.414 2.096,2.42 2.3546,0.008 4.095,-0.94315 5.3315,-2.852 1.1639,-1.8676 1.8974,-5.4836 1.9074,-9.3927 0.009,-3.5349 -0.49034,-6.5722 -1.463,-8.738 -1.2606,-2.8739 -3.0684,-4.2522 -5.6767,-4.2612 z" />
</svg>
